<?xml version="1.0" encoding="iso-8859-1"?>
<!-- Uploaded to: SVG Repo, www.svgrepo.com, Generator: SVG Repo Mixer Tools -->
<svg height="800px" width="800px" version="1.1" id="Layer_1" xmlns="http://www.w3.org/2000/svg" xmlns:xlink="http://www.w3.org/1999/xlink" 
	 viewBox="0 0 512 512" xml:space="preserve">
<path style="fill:#87BDF4;" d="M512,256c0,141.241-114.759,256-256,256S0,397.241,0,256S114.759,0,256,0S512,114.759,512,256"/>
<path style="fill:#395B7E;" d="M256,35.31c-92.69,0-167.724,158.014-167.724,353.103c0,21.186,0.883,42.372,2.648,63.559
	C135.062,489.931,193.324,512,256,512s120.055-22.952,165.076-60.028c1.766-20.303,2.648-41.49,2.648-63.559
	C423.724,193.324,348.69,35.31,256,35.31"/>
<g>
	<path style="fill:#5686B2;" d="M344.276,88.276C318.676,54.731,288.662,35.31,256,35.31s-62.676,19.421-88.276,52.966H344.276z"/>
	<path style="fill:#5686B2;" d="M94.455,397.241l272.772-272.772c-2.648-5.297-6.179-10.593-8.828-15.89
		c-0.883,0-0.883,0.883-1.766,0.883L88.276,377.821c0,3.531,0,7.062,0,10.593c0,3.531,0,7.062,0,10.593
		C90.924,399.007,92.69,398.124,94.455,397.241"/>
	<path style="fill:#5686B2;" d="M118.29,472.276c5.297,3.531,9.71,6.179,15.007,8.828l267.476-267.476
		c-1.766-6.179-3.531-12.359-5.297-18.538c-1.766,0-2.648,0.883-3.531,1.766L120.055,470.51
		C119.172,470.51,119.172,471.393,118.29,472.276"/>
	<path style="fill:#5686B2;" d="M406.069,231.283L243.641,68.855c-3.531-3.531-8.828-3.531-12.359,0
		c-3.531,3.531-3.531,8.828,0,12.359L403.42,253.352c1.766,1.766,4.414,2.648,6.179,2.648c0.883,0,0.883,0,1.766,0
		C409.6,247.172,407.835,239.228,406.069,231.283"/>
	<path style="fill:#5686B2;" d="M209.214,507.586c6.179,0.883,13.241,1.766,19.421,2.648l191.559-191.559
		c-0.883-7.062-1.766-13.241-1.766-20.303c-1.766,0-3.531,0.883-5.297,2.648L211.862,503.172
		C210.979,504.055,210.097,505.821,209.214,507.586"/>
	<path style="fill:#5686B2;" d="M155.366,105.931c-3.531,5.297-6.179,9.71-8.828,15.007l271.007,271.007
		c1.766,1.766,3.531,2.648,6.179,2.648c0-1.766,0-4.414,0-6.179c0-5.297,0-9.71,0-15.007L157.131,106.814
		C156.248,106.814,156.248,105.931,155.366,105.931"/>
	<path style="fill:#5686B2;" d="M421.076,444.91c0.883-7.062,0.883-15.007,1.766-22.069c-2.648,0-4.414,0.883-7.062,2.648
		l-55.614,55.614c-2.648,2.648-3.531,7.062-1.766,9.71c13.241-5.297,25.6-12.359,37.076-20.303L421.076,444.91z"/>
	<path style="fill:#5686B2;" d="M379.586,480.221c5.297-2.648,10.593-6.179,15.007-8.828c0-0.883-0.883-0.883-0.883-1.766
		L120.055,195.972c-0.883-0.883-2.648-1.766-3.531-1.766c-1.766,6.179-3.531,12.359-5.297,17.655L379.586,480.221z"/>
	<path style="fill:#5686B2;" d="M285.131,510.234c6.179-0.883,13.241-1.766,19.421-2.648c0-1.766-0.883-3.531-2.648-4.414
		L98.869,300.138c-1.766-1.766-3.531-1.766-5.297-2.648c-0.883,6.179-1.766,13.241-2.648,20.303L285.131,510.234z"/>
	<path style="fill:#5686B2;" d="M90.041,441.379l33.545,33.545c11.476,7.062,22.952,12.359,34.428,17.655
		c1.766-3.531,0.883-7.062-1.766-9.71l-60.91-60.91c-1.766-1.766-4.414-2.648-7.062-2.648
		C89.159,427.255,90.041,434.317,90.041,441.379"/>
	<path style="fill:#5686B2;" d="M282.483,70.621c-3.531-3.531-8.828-3.531-12.359,0L105.048,234.814
		c-1.766,7.945-3.531,15.89-5.297,24.717c0.883,0,0.883,0,1.766,0c2.648,0,4.414-0.883,6.179-2.648L282.483,82.979
		C286.014,79.448,286.014,74.152,282.483,70.621"/>
</g>
</svg>